<svg xmlns="http://www.w3.org/2000/svg" version="1.1" xmlns:xlink="http://www.w3.org/1999/xlink" viewBox="0 0 837.47 148.76" enable-background="new 0 0 837.47 148.76">


  <!-- Background BEGIN -->
  <rect x="0" y="0" fill="transparent" />
  <!-- Background END -->
  
  <!-- CompanyEgg SVG BEGIN -->
  <rect fill="url(#eggpattern)" class="topEGG" x="33.84" y="31.46" width="25.3" height="25.3" rx="4.46" ry="4.46"/>
    <rect fill="url(#pattern)" x="33.84" y="92" width="25.3" height="25.3" rx="4.46" ry="4.46"/>
    <path fill="url(#eggpattern)" class="topEGG" d="M27,240.93c4.1-7.55,8.91-13.92,14.2-18.49v14a4.47,4.47,0,0,1-4.45,4.46Z" transform="translate(-12.25 -214.71)"/>
    <path fill="url(#eggpattern)" class="topEGG" d="M16.34,268.93a124.29,124.29,0,0,1,8-22.76h12.4a4.46,4.46,0,0,1,4.45,4.46V267a4.47,4.47,0,0,1-4.45,4.46H20.35A4.46,4.46,0,0,1,16.34,268.93Z" transform="translate(-12.25 -214.71)"/>
    <path fill="url(#eggpattern)" class="topEGG" d="M12.25,301.6v-.06a134,134,0,0,1,2.46-25.24h22a4.47,4.47,0,0,1,4.45,4.46v16.38a4.47,4.47,0,0,1-4.45,4.46Z" transform="translate(-12.25 -214.71)"/>
    <path fill="url(#pattern)" class="1d885af6-9d87-4b24-a32d-d5c28c613d48" d="M17.11,332.14a84.34,84.34,0,0,1-4.74-25.3H36.74a4.47,4.47,0,0,1,4.45,4.46v16.38a4.47,4.47,0,0,1-4.45,4.46Z" transform="translate(-12.25 -214.71)"/>
    <path fill="url(#pattern)" class="1d885af6-9d87-4b24-a32d-d5c28c613d48" d="M40.91,359.51c-9-4.14-16.57-11.54-21.66-22.26a4,4,0,0,1,1.1-.14H36.74a4.47,4.47,0,0,1,4.45,4.46V358A4.27,4.27,0,0,1,40.91,359.51Z" transform="translate(-12.25 -214.71)"/>
    <path fill="url(#pattern)" class="1d885af6-9d87-4b24-a32d-d5c28c613d48" d="M71.38,362a46.54,46.54,0,0,1-11.7,1.46,46,46,0,0,1-13.59-2v-19.9a4.47,4.47,0,0,1,4.46-4.46H66.93a4.48,4.48,0,0,1,4.46,4.46V362Z" transform="translate(-12.25 -214.71)"/>
    <path fill="url(#pattern)" class="1d885af6-9d87-4b24-a32d-d5c28c613d48" d="M99.79,337.91c-5.36,10.93-13.34,18.32-22.8,22.23a4.39,4.39,0,0,1-.58-2.19V341.57a4.48,4.48,0,0,1,4.46-4.46H97.25A4.38,4.38,0,0,1,99.79,337.91Z" transform="translate(-12.25 -214.71)"/>
    <path fill="url(#pattern)" class="1d885af6-9d87-4b24-a32d-d5c28c613d48" d="M107,306.71A84.7,84.7,0,0,1,102.3,332H80.87a4.47,4.47,0,0,1-4.46-4.46V311.16a4.47,4.47,0,0,1,4.46-4.45Z" transform="translate(-12.25 -214.71)"/>
    <path fill="url(#pattern)" class="1d885af6-9d87-4b24-a32d-d5c28c613d48" d="M104.7,276.58a133.53,133.53,0,0,1,2.42,25v.33H80.87a4.47,4.47,0,0,1-4.46-4.45V281a4.47,4.47,0,0,1,4.46-4.45Z" transform="translate(-12.25 -214.71)"/>
    <path fill="url(#pattern)" class="1d885af6-9d87-4b24-a32d-d5c28c613d48" d="M95,246.17a122.28,122.28,0,0,1,6.68,17.88v3a4.48,4.48,0,0,1-4.46,4.46H80.87A4.48,4.48,0,0,1,76.41,267V250.63a4.48,4.48,0,0,1,4.46-4.46Z" transform="translate(-12.25 -214.71)"/>
    <path fill="url(#eggpattern)" class="topEGG" d="M76.41,221c6,4.63,11.41,11.54,16,19.91H80.87a4.48,4.48,0,0,1-4.46-4.46Z" transform="translate(-12.25 -214.71)"/>
    <path fill="url(#eggpattern)" class="topEGG" d="M59.68,214.71a25,25,0,0,1,11.71,3v18.71a4.48,4.48,0,0,1-4.46,4.46H50.55a4.48,4.48,0,0,1-4.46-4.46V218.84A25.82,25.82,0,0,1,59.68,214.71Z" transform="translate(-12.25 -214.71)"/>
    <path fill="url(#pattern)" class="1d885af6-9d87-4b24-a32d-d5c28c613d48" d="M50.55,276.58H66.93A4.47,4.47,0,0,1,71.39,281v16.39a4.47,4.47,0,0,1-4.46,4.45H50.55a4.46,4.46,0,0,1-4.46-4.45V281A4.46,4.46,0,0,1,50.55,276.58Z" transform="translate(-12.25 -214.71)"/>
    <g>
      <path fill="url(#pattern)" class="d1b55c1a-51e0-40be-8f61-57feea4635a3" d="M189.56,314.92a3.23,3.23,0,0,1,1.17.22,3.2,3.2,0,0,1,1.12.75l6.53,6.88a27.07,27.07,0,0,1-10.75,8.46,37.66,37.66,0,0,1-15.29,2.85,36.38,36.38,0,0,1-14.51-2.75A31.36,31.36,0,0,1,147,323.72a33.31,33.31,0,0,1-6.85-11.51,42.31,42.31,0,0,1-2.39-14.46,40,40,0,0,1,2.58-14.6,33.91,33.91,0,0,1,7.27-11.49,32.75,32.75,0,0,1,11.21-7.51,37.74,37.74,0,0,1,14.39-2.68,38.54,38.54,0,0,1,7.54.71,36.76,36.76,0,0,1,6.6,1.95,30.16,30.16,0,0,1,10.24,6.8L192,278.39a7.1,7.1,0,0,1-1.26,1.25,3.33,3.33,0,0,1-2,.56,3.65,3.65,0,0,1-1.66-.39c-.52-.26-1.07-.58-1.66-.95s-1.23-.78-1.92-1.22a14.45,14.45,0,0,0-2.49-1.22,19.89,19.89,0,0,0-3.37-.95,22.88,22.88,0,0,0-4.51-.39,18.11,18.11,0,0,0-7.48,1.51,16.36,16.36,0,0,0-5.85,4.41,20.45,20.45,0,0,0-3.81,7.12,31.87,31.87,0,0,0-1.34,9.63,29.34,29.34,0,0,0,1.49,9.71,21.15,21.15,0,0,0,4,7.14,16.89,16.89,0,0,0,6,4.41,17.83,17.83,0,0,0,7.31,1.52,36.51,36.51,0,0,0,4.1-.22,18.89,18.89,0,0,0,3.46-.73,14.56,14.56,0,0,0,3-1.37,18.84,18.84,0,0,0,2.87-2.17,6,6,0,0,1,1.27-.8A3.23,3.23,0,0,1,189.56,314.92Z" transform="translate(-12.25 -214.71)" />
      <path fill="url(#pattern)" class="d1b55c1a-51e0-40be-8f61-57feea4635a3" d="M273.68,297.75A38.22,38.22,0,0,1,271,312.09,33.91,33.91,0,0,1,251.9,331.3a42.43,42.43,0,0,1-30.21,0,33.92,33.92,0,0,1-19.19-19.21,40.1,40.1,0,0,1,0-28.67A34.06,34.06,0,0,1,210,271.91a34.77,34.77,0,0,1,11.68-7.66,39.79,39.79,0,0,1,15.12-2.78,39.38,39.38,0,0,1,15.09,2.8A34.72,34.72,0,0,1,263.53,272a34.22,34.22,0,0,1,7.49,11.5A38.15,38.15,0,0,1,273.68,297.75Zm-16.88,0a30.7,30.7,0,0,0-1.36-9.48,20.08,20.08,0,0,0-3.93-7.15,16.85,16.85,0,0,0-6.26-4.48,21.6,21.6,0,0,0-8.44-1.56,21.89,21.89,0,0,0-8.51,1.56,16.87,16.87,0,0,0-6.29,4.48,20.08,20.08,0,0,0-3.93,7.15,33.93,33.93,0,0,0,0,19,20,20,0,0,0,3.93,7.14,16.61,16.61,0,0,0,6.29,4.46,22.08,22.08,0,0,0,8.51,1.54,21.79,21.79,0,0,0,8.44-1.54,16.58,16.58,0,0,0,6.26-4.46,20,20,0,0,0,3.93-7.14A31,31,0,0,0,256.8,297.75Z" transform="translate(-12.25 -214.71)"/>
      <path fill="url(#pattern)" class="d1b55c1a-51e0-40be-8f61-57feea4635a3" d="M363.26,262.25V333.3H348.73V292.44c0-.94,0-2,.07-3.07s.14-2.23.27-3.37L330.2,322.53a6.2,6.2,0,0,1-2.37,2.58,6.49,6.49,0,0,1-3.39.88H322.2a6.49,6.49,0,0,1-3.39-.88,6.11,6.11,0,0,1-2.36-2.58L297.57,285.9c.1,1.17.18,2.32.25,3.44s.09,2.16.09,3.1V333.3H283.38V262.25H296c.72,0,1.34,0,1.88.05a4.78,4.78,0,0,1,1.44.29,3.39,3.39,0,0,1,1.15.76,6.08,6.08,0,0,1,1,1.44l18.28,36c.65,1.23,1.28,2.51,1.88,3.85s1.18,2.7,1.73,4.09c.55-1.43,1.13-2.82,1.73-4.19s1.25-2.66,1.93-3.9l18.24-35.89a5.8,5.8,0,0,1,1-1.44,3.26,3.26,0,0,1,1.14-.76,4.91,4.91,0,0,1,1.44-.29c.54,0,1.16-.05,1.88-.05Z" transform="translate(-12.25 -214.71)"/>
      <path fill="url(#pattern)" class="d1b55c1a-51e0-40be-8f61-57feea4635a3" d="M402.08,262.25A41.31,41.31,0,0,1,415,264a24.77,24.77,0,0,1,8.87,4.9A19.12,19.12,0,0,1,429,276.3a25,25,0,0,1,1.66,9.16,26.93,26.93,0,0,1-1.71,9.76,19.55,19.55,0,0,1-5.22,7.6,24.41,24.41,0,0,1-8.9,4.95,40.67,40.67,0,0,1-12.75,1.78H393.5V333.3H377V262.25Zm0,34.87q6.44,0,9.26-3.07t2.83-8.59a12.75,12.75,0,0,0-.73-4.43,9,9,0,0,0-2.22-3.44,9.94,9.94,0,0,0-3.75-2.22,16.62,16.62,0,0,0-5.39-.78H393.5v22.53Z" transform="translate(-12.25 -214.71)"/>
      <path fill="url(#pattern)" class="d1b55c1a-51e0-40be-8f61-57feea4635a3" d="M497.81,333.3H485a5.53,5.53,0,0,1-3.46-1,6.25,6.25,0,0,1-2-2.56l-4.2-12.38h-27l-4.2,12.38a6.06,6.06,0,0,1-1.92,2.47,5.4,5.4,0,0,1-3.44,1.09H425.92l27.51-71.05H470.3Zm-26.19-27.16L465,286.68c-.49-1.23-1-2.69-1.57-4.36s-1.1-3.49-1.65-5.44q-.74,3-1.56,5.51c-.56,1.69-1.08,3.15-1.56,4.39l-6.54,19.36Z" transform="translate(-12.25 -214.71)"/>
      <path fill="url(#pattern)" class="d1b55c1a-51e0-40be-8f61-57feea4635a3" d="M565.45,262.25V333.3h-8.59a7.38,7.38,0,0,1-3.19-.61,7.67,7.67,0,0,1-2.56-2.12l-33.5-42.38c.12,1.27.21,2.5.26,3.69s.08,2.3.08,3.34V333.3H503.41V262.25h8.68a13.16,13.16,0,0,1,1.81.1,4.73,4.73,0,0,1,1.32.36,4.62,4.62,0,0,1,1.12.76,14.16,14.16,0,0,1,1.22,1.32l33.79,42.67c-.16-1.37-.27-2.69-.34-4s-.1-2.49-.1-3.63v-37.6Z" transform="translate(-12.25 -214.71)"/>
      <path fill="url(#pattern)" class="d1b55c1a-51e0-40be-8f61-57feea4635a3" d="M613.24,306.29v27H596.75v-27l-25.75-44h14.54a5.25,5.25,0,0,1,3.39,1,8.38,8.38,0,0,1,2.07,2.56l10,20.68c.85,1.62,1.61,3.14,2.3,4.56s1.28,2.8,1.8,4.17c.49-1.4,1.05-2.81,1.68-4.22s1.38-2.92,2.22-4.51l10-20.68a9.81,9.81,0,0,1,.83-1.27A6.47,6.47,0,0,1,621,263.4a5.7,5.7,0,0,1,1.52-.83,5.32,5.32,0,0,1,1.87-.32H639Z" transform="translate(-12.25 -214.71)"/>
      <path fill="url(#pattern)" class="d1b55c1a-51e0-40be-8f61-57feea4635a3" d="M689.31,329.16l-.1,4.14H647.86v-69h41.35v4.14H652.88v27.9h30.24v4.05H652.88v28.77Z" transform="translate(-12.25 -214.71)"/>
      <path fill="url(#pattern)" class="d1b55c1a-51e0-40be-8f61-57feea4635a3" d="M758,302v24.53a42.12,42.12,0,0,1-11,5.6,41.5,41.5,0,0,1-13.16,1.95,40.67,40.67,0,0,1-14.73-2.51,31.43,31.43,0,0,1-11.14-7.12,30.93,30.93,0,0,1-7.08-11.14,41,41,0,0,1-2.46-14.53,41.7,41.7,0,0,1,2.41-14.51A30.27,30.27,0,0,1,718.62,266,39.13,39.13,0,0,1,733,263.52a45.85,45.85,0,0,1,7.29.54,33,33,0,0,1,6.21,1.58,29.57,29.57,0,0,1,5.37,2.58,37.09,37.09,0,0,1,4.78,3.54l-1.37,2.15a1.4,1.4,0,0,1-2,.53,10,10,0,0,1-2.09-1.36,21.32,21.32,0,0,0-3.76-2.25,31.67,31.67,0,0,0-5.92-2.09,34.34,34.34,0,0,0-8.61-.93A32.93,32.93,0,0,0,720.69,270a25.75,25.75,0,0,0-9.26,6.14,27.17,27.17,0,0,0-5.9,9.75,37.8,37.8,0,0,0-2.08,12.93,38.5,38.5,0,0,0,2.08,13.07,27,27,0,0,0,6,9.85,26,26,0,0,0,9.54,6.19A35.14,35.14,0,0,0,733.69,330a38.5,38.5,0,0,0,5.68-.39,35.76,35.76,0,0,0,5-1.1,32.2,32.2,0,0,0,4.59-1.76c1.48-.7,3-1.48,4.51-2.36V305.85H740.22a1.31,1.31,0,0,1-.9-.34,1.06,1.06,0,0,1-.36-.78V302Z" transform="translate(-12.25 -214.71)"/>
      <path fill="url(#pattern)" class="d1b55c1a-51e0-40be-8f61-57feea4635a3" d="M829.66,302v24.53a42.28,42.28,0,0,1-11,5.6,41.52,41.52,0,0,1-13.17,1.95,40.71,40.71,0,0,1-14.73-2.51,31.51,31.51,0,0,1-11.14-7.12,30.91,30.91,0,0,1-7.07-11.14,41,41,0,0,1-2.46-14.53,41.47,41.47,0,0,1,2.41-14.51,31.11,31.11,0,0,1,6.93-11.12A30.79,30.79,0,0,1,790.3,266a39.17,39.17,0,0,1,14.39-2.51,45.85,45.85,0,0,1,7.29.54,33.09,33.09,0,0,1,6.22,1.58,29.16,29.16,0,0,1,5.36,2.58,37.09,37.09,0,0,1,4.78,3.54L827,273.91a1.4,1.4,0,0,1-2.05.53,9.7,9.7,0,0,1-2.1-1.36,21.18,21.18,0,0,0-3.75-2.25,31.79,31.79,0,0,0-5.93-2.09,34.34,34.34,0,0,0-8.61-.93A32.88,32.88,0,0,0,792.38,270a25.71,25.71,0,0,0-9.27,6.14,27.31,27.31,0,0,0-5.9,9.75,38,38,0,0,0-2.07,12.93,38.75,38.75,0,0,0,2.07,13.07,26.89,26.89,0,0,0,6,9.85,26,26,0,0,0,9.53,6.19A35.14,35.14,0,0,0,805.37,330a38.5,38.5,0,0,0,5.68-.39,36.23,36.23,0,0,0,5-1.1,32.07,32.07,0,0,0,4.58-1.76c1.48-.7,3-1.48,4.51-2.36V305.85H811.91a1.29,1.29,0,0,1-.9-.34,1,1,0,0,1-.37-.78V302Z" transform="translate(-12.25 -214.71)"/>
      <path fill="url(#pattern)" class="d1b55c1a-51e0-40be-8f61-57feea4635a3" d="M843.4,259.81a5.88,5.88,0,0,1,1.68.23,6.43,6.43,0,0,1,1.5.63,6.53,6.53,0,0,1,1.28,1,6.45,6.45,0,0,1,1,1.28,7,7,0,0,1,.64,1.51,6.49,6.49,0,0,1,0,3.35,7,7,0,0,1-.64,1.51,6.38,6.38,0,0,1-1,1.27,5.85,5.85,0,0,1-1.28,1,6.46,6.46,0,0,1-1.5.64,6.25,6.25,0,0,1-4.86-.64,6.09,6.09,0,0,1-1.28-1,6.77,6.77,0,0,1-1-1.27,7,7,0,0,1-.64-1.51,6.49,6.49,0,0,1,0-3.35,7,7,0,0,1,.64-1.51,6.38,6.38,0,0,1,2.27-2.27,6.26,6.26,0,0,1,1.5-.63A5.88,5.88,0,0,1,843.4,259.81Zm0,12.15a5.78,5.78,0,0,0,2.94-.8,6,6,0,0,0,2.08-2.08,5.61,5.61,0,0,0,.59-1.4,5.89,5.89,0,0,0-.25-3.84,6,6,0,0,0-3.09-3.11,5.81,5.81,0,0,0-4.53,0A5.91,5.91,0,0,0,839.3,262a5.93,5.93,0,0,0-1.24,6.41,5.63,5.63,0,0,0,1.24,1.85,5.76,5.76,0,0,0,4.1,1.71Zm-.18-9.71a3.47,3.47,0,0,1,2,.5,1.81,1.81,0,0,1,.68,1.54,1.94,1.94,0,0,1-.56,1.43,2.67,2.67,0,0,1-1.58.7,1.14,1.14,0,0,1,.34.35l2.49,3.22h-.69a.35.35,0,0,1-.16,0,.23.23,0,0,1-.11-.11l-2.37-3.07a.55.55,0,0,0-.18-.16,1,1,0,0,0-.35-.05h-1V270h-.74v-7.74Zm-.13,3.76a2.4,2.4,0,0,0,1.58-.43,1.47,1.47,0,0,0,.52-1.22,1.41,1.41,0,0,0-.46-1.17,2.52,2.52,0,0,0-1.51-.36H841.8V266Z" transform="translate(-12.25 -214.71)"/>
   </g> 
  <!-- CompanyEgg SVG END -->
  
    
    <defs>  
  <!-- CompanyEGG text & bottom Egg Gradient -->
      <linearGradient id="gradient" x1="0%" y1="0%" x2="100%" y2="0">
        <stop offset="0%" stop-color="#D53F8C"></stop>
        <stop offset="10%" stop-color="#805AD5"></stop>
        <stop offset="20%" stop-color="#5A67D8"></stop>
        <stop offset="30%" stop-color="#3182CE"></stop>
        <stop offset="40%" stop-color="#319795"></stop>
        <stop offset="50%" stop-color="#38A169"></stop>
        <stop offset="60%" stop-color="#D69E2E"></stop>
        <stop offset="70%" stop-color="#DD6B20"></stop>
        <stop offset="80%" stop-color="#E53E3E"></stop>
        <stop offset="100%" stop-color="#D53F8C"></stop>
  
  
      </linearGradient>
      
      
  
      <!-- Stitch 2 gradients together for seamless animation  -->
      <pattern id="pattern" x="0" y="0" width="300%" height="100%" patternUnits="userSpaceOnUse">
        <rect x="0" y="0" width="150%" height="100%" fill="url(#gradient)">
          <animate attributeType="XML"
                   attributeName="x"
                   from="0" to="150%"
                   dur="10s"
                   repeatCount="indefinite"/>
        </rect>
        <rect x="-150%" y="0" width="150%" height="100%" fill="url(#gradient)">
          <animate attributeType="XML"
                   attributeName="x"
                   from="-150%" to="0"
                   dur="10s"
                   repeatCount="indefinite"/>
        </rect>
      </pattern>
  <!-- CompanyEGG text & bottom Egg Gradient END -->  
  
  
  <!-- TOP EGGgradient BEGIN -->
  
      <linearGradient id="egggradient" x1="0%" y1="0%" x2="100%" y2="0">
        <stop offset="0%" style="stop-color:orange" />
        <stop offset="25%" style="stop-color:white" />
        <stop offset="50%" style="stop-color:red" />
        <stop offset="100%" style="stop-color:orange" />
      </linearGradient>
      
      
  
      <!-- Stitch 2 gradients together for seamless animation  -->
      <pattern id="eggpattern" x="0" y="0" width="300%" height="100%" patternUnits="userSpaceOnUse">
        <rect x="0" y="0" width="150%" height="100%" fill="url(#egggradient)">
          <animate attributeType="XML"
                   attributeName="x"
                   from="0" to="150%"
                   dur="15s"
                   repeatCount="indefinite"/>
        </rect>
        <rect x="-150%" y="0" width="150%" height="100%" fill="url(#egggradient)">
          <animate attributeType="XML"
                   attributeName="x"
                   from="-150%" to="0"
                   dur="15s"
                   repeatCount="indefinite"/>
        </rect>
      </pattern>
  <!-- TOP EGGgradient END-->
  
    </defs>
  </svg>